<?xml version="1.0" encoding="iso-8859-1"?>
<!-- Generator: Adobe Illustrator 18.0.0, SVG Export Plug-In . SVG Version: 6.00 Build 0)  -->
<!DOCTYPE svg PUBLIC "-//W3C//DTD SVG 1.1//EN" "http://www.w3.org/Graphics/SVG/1.1/DTD/svg11.dtd">
<svg version="1.1" id="_x32_" xmlns="http://www.w3.org/2000/svg" xmlns:xlink="http://www.w3.org/1999/xlink" x="0px" y="0px"
	 viewBox="0 0 512 512" style="enable-background:new 0 0 512 512;" xml:space="preserve">
<g>
	<rect style="fill:#E3C134;" width="512" height="512"/>
	<path style="opacity:0.1;fill:#040000;" d="M512,236.697V512H203.008l-93.44-93.44l-4.454-4.403l-0.359-6.912l-8.09-144.282
		c25.651-12.851,43.367-39.373,43.367-69.837V93.44h58.163v0.359c16.435,8.14,36.352,12.851,57.805,12.851
		s41.318-4.711,57.805-12.851V93.44h54.938L512,236.697z"/>
	<g>
		<path style="fill:#AA8391;" d="M380.742,94.443c-1.548,44.494-56.769,80.302-124.742,80.302
			c-67.726,0-122.885-35.584-124.681-79.91l54.602-16.475c0.062,0.056,0.124,0.112,0.186,0.112
			c19.872,8.91,43.954,14.065,69.893,14.065s49.959-5.156,69.893-14.065c0.247-0.112,0.557-0.224,0.805-0.337L380.742,94.443z"/>
		<path style="fill:#DF4A5C;" d="M423.891,263.621l-9.536,154.306c-0.555,8.974-8.755,15.993-18.684,15.993H116.328
			c-9.929,0-18.13-7.02-18.684-15.993l-9.535-154.306c31.015-14.065,27.672-43.093,27.672-76.436V99.543l15.539-4.708l54.602-16.475
			c-0.248-0.056-0.433-0.168-0.681-0.28h0.866v0.393c0,5.492,0.372,10.759,1.053,15.971c0,0.055,0.062,0.168,0.062,0.224
			c5.758,44.494,34.359,78.285,68.779,78.285c34.42,0,63.021-33.79,68.779-78.285c0-0.056,0.062-0.168,0.062-0.224
			c0.681-5.212,1.052-10.479,1.052-15.971V78.08h0.929c-0.062,0-0.062,0.056-0.124,0.056l54.045,16.307l15.477,4.651v88.091
			C396.219,220.528,392.876,249.556,423.891,263.621z"/>
		<rect x="235.974" y="102.662" style="fill:#E2C5CB;" width="34.944" height="12.455"/>
		<g>
			<path style="fill:#EAE0B6;" d="M256,183.77c-37.102,0-68.557-34.86-74.887-82.929c-0.042-0.175-0.073-0.35-0.097-0.525
				l-0.006,0.006c-0.738-5.626-1.094-11.071-1.094-16.636c0-1.937,1.106-3.738,2.926-4.761c1.826-1.018,4.087-1.127,6.015-0.257
				C208.524,87.488,231.739,92.15,256,92.15c24.194,0,47.416-4.663,67.154-13.49c1.916-0.859,4.196-0.755,6.003,0.263
				c1.82,1.023,2.926,2.824,2.926,4.761c0,5.538-0.363,10.978-1.1,16.636l-0.006-0.006c-0.024,0.181-0.054,0.356-0.097,0.531
				C324.545,148.916,293.096,183.77,256,183.77z M193.368,99.226c5.495,42.493,31.836,73.336,62.632,73.336
				c30.79,0,57.131-30.843,62.626-73.336h0.006c0.024-0.175,0.054-0.356,0.097-0.531c0.266-2.096,0.478-4.159,0.635-6.206
				c-19.255,7.131-40.953,10.868-63.364,10.868c-22.459,0-44.157-3.738-63.37-10.863c0.157,2.052,0.369,4.115,0.635,6.206
				c0.042,0.175,0.073,0.35,0.097,0.525H193.368z"/>
		</g>
		<g>
			<path style="fill:#EDEBEA;" d="M212.627,224.787v43.822h23.76v-21.407h35.976l-44.214,113.925h27.01l44.214-113.925v-22.415
				H212.627z"/>
		</g>
		<path style="opacity:0.1;fill:#3F3F3F;" d="M396.219,187.185v-58.11L96.557,400.327l1.087,17.599
			c0.555,8.973,8.755,15.993,18.684,15.993h279.343c9.929,0,18.13-7.02,18.685-15.993l9.536-154.306
			C392.876,249.556,396.219,220.528,396.219,187.185z"/>
	</g>
	<path style="opacity:0.2;fill:#3F3F3F;" d="M105.642,431.36c2.918,1.638,6.298,2.56,9.933,2.56h279.347
		c9.933,0,18.125-7.015,18.688-15.975l1.075-17.613v-0.051h-0.051L105.642,431.36z"/>
</g>
</svg>
